<?xml version="1.0" encoding="UTF-8" standalone="no"?>
<svg
   version="1.1"
   width="36"
   height="36"
   viewBox="0 0 36 36"
   preserveAspectRatio="xMidYMid meet"
   id="svg1"
   sodipodi:docname="bloxpath.svg"
   inkscape:version="1.4.2 (f4327f4, 2025-05-13)"
   xmlns:inkscape="http://www.inkscape.org/namespaces/inkscape"
   xmlns:sodipodi="http://sodipodi.sourceforge.net/DTD/sodipodi-0.dtd"
   xmlns="http://www.w3.org/2000/svg"
   xmlns:svg="http://www.w3.org/2000/svg"
   xmlns:rdf="http://www.w3.org/1999/02/22-rdf-syntax-ns#"
   xmlns:cc="http://creativecommons.org/ns#"
   xmlns:dc="http://purl.org/dc/elements/1.1/">
  <defs
     id="defs1" />
  <sodipodi:namedview
     id="namedview1"
     pagecolor="#ffffff"
     bordercolor="#000000"
     borderopacity="0.25"
     inkscape:showpageshadow="2"
     inkscape:pageopacity="0.0"
     inkscape:pagecheckerboard="0"
     inkscape:deskcolor="#d1d1d1"
     inkscape:zoom="17.416667"
     inkscape:cx="18"
     inkscape:cy="18"
     inkscape:window-width="1600"
     inkscape:window-height="829"
     inkscape:window-x="-8"
     inkscape:window-y="-8"
     inkscape:window-maximized="1"
     inkscape:current-layer="svg1" />
  <title
     id="title1">blocks-group-line</title>
  <path
     d="M33.53,18.76,26.6,15.57V6.43A1,1,0,0,0,26,5.53l-7.5-3.45a1,1,0,0,0-.84,0l-7.5,3.45a1,1,0,0,0-.58.91v9.14L2.68,18.76a1,1,0,0,0-.58.91v9.78h0a1,1,0,0,0,.58.91l7.5,3.45a1,1,0,0,0,.84,0l7.08-3.26,7.08,3.26a1,1,0,0,0,.84,0l7.5-3.45a1,1,0,0,0,.58-.91h0V19.67A1,1,0,0,0,33.53,18.76Zm-2.81.91L25.61,22,20.5,19.67l5.11-2.35ZM18.1,4.08l5.11,2.35L18.1,8.78,13,6.43ZM10.6,17.31l5.11,2.35L10.6,22,5.49,19.67Zm6.5,11.49-6.5,3-6.5-3V21.23L10.18,24A1,1,0,0,0,11,24l6.08-2.8ZM11.6,15.57h0V8l6.08,2.8a1,1,0,0,0,.84,0L24.6,8v7.58h0l-6.5,3ZM32.11,28.81l-6.5,3-6.51-3V21.22L25.19,24A1,1,0,0,0,26,24l6.08-2.8Z"
     class="clr-i-outline clr-i-outline-path-1"
     id="path1" />
  <path
     id="rect1"
     style="fill-opacity:0"
     d="M 0,0 H 36 V 36 H 0 Z" />
  <metadata
     id="metadata1">
    <rdf:RDF>
      <cc:Work
         rdf:about="">
        <dc:title>blocks-group-line</dc:title>
      </cc:Work>
    </rdf:RDF>
  </metadata>
</svg>
